<svg width="512" height="512" xml:space="preserve" xmlns:xlink="http://www.w3.org/1999/xlink"
  xmlns="http://www.w3.org/2000/svg">
  <defs>
    <linearGradient id="a">
      <stop stop-color="#fff" offset="0" />
      <stop stop-color="#fff" stop-opacity="0" offset="1" />
    </linearGradient>
    <linearGradient id="c">
      <stop stop-color="#dc0000" offset="0" />
      <stop stop-color="#ffb200" offset="1" />
    </linearGradient>
    <linearGradient id="b">
      <stop stop-color="#fff" stop-opacity=".449" offset="0" />
      <stop stop-color="#fff" stop-opacity="0" offset="1" />
    </linearGradient>
    <linearGradient id="f" x1="181.15" x2="194.54" y1="389.34" y2="118.54" gradientUnits="userSpaceOnUse"
      gradientTransform="translate(28.497 52.19)">
      <stop offset="0" />
      <stop stop-opacity="0" offset="1" />
    </linearGradient>
    <linearGradient id="H" x1="124.57" x2="153.34" y1="931.46" y2="853.1"
      gradientTransform="matrix(1.3317 0 0 .75092 51.239 -223.96)" gradientUnits="userSpaceOnUse">
      <stop stop-color="#fdffff" offset="0" />
      <stop stop-color="#fdffff" stop-opacity="0" offset="1" />
    </linearGradient>
    <linearGradient id="Q" x1="198.88" x2="342.54" y1="246.21" y2="403.09"
      gradientTransform="matrix(.68311 0 0 1.4639 51.239 -231.41)" gradientUnits="userSpaceOnUse" xlink:href="#a" />
    <linearGradient id="P" x1="190.53" x2="212.77" gradientUnits="userSpaceOnUse" xlink:href="#b"
      gradientTransform="translate(28.497 52.19)" />
    <linearGradient id="O" x1="-1131" x2="-1102.7" y1="404.58" y2="306.76"
      gradientTransform="matrix(.79621 0 0 1.7063 1153.997 -263.29)" gradientUnits="userSpaceOnUse" xlink:href="#c" />
    <linearGradient id="N" x1="322.01" x2="345.29" gradientUnits="userSpaceOnUse" xlink:href="#b"
      gradientTransform="translate(28.497 52.19)" />
    <linearGradient id="M" x1="501.4" x2="317.14" y1="384.4" y2="485.78"
      gradientTransform="matrix(.7951 0 0 1.2577 52.593 -226.67)" gradientUnits="userSpaceOnUse" xlink:href="#a" />
    <linearGradient id="L" x1="-916.9" x2="-857.96" y1="438.47" y2="362.16"
      gradientTransform="matrix(.92675 0 0 1.466 1153.997 -263.29)" gradientUnits="userSpaceOnUse" xlink:href="#c" />
    <linearGradient id="G" x1="230.94" x2="163.66" y1="927.57" y2="832.44"
      gradientTransform="matrix(1.3185 0 0 .75843 51.538 -225.16)" gradientUnits="userSpaceOnUse" xlink:href="#a" />
    <linearGradient id="S" x1="9.655" x2="323.1" y1="256.78" y2="500.8"
      gradientTransform="matrix(.80597 0 0 1.2408 46.498 -211.77)" gradientUnits="userSpaceOnUse" xlink:href="#a" />
    <linearGradient id="F" x1="284.69" x2="305.35" gradientUnits="userSpaceOnUse" xlink:href="#b"
      gradientTransform="translate(28.497 52.19)" />
    <linearGradient id="R" x1="110.45" x2="239.46" y1="244.05" y2="376.9"
      gradientTransform="matrix(.60192 0 0 1.6614 54.797 -217.26)" gradientUnits="userSpaceOnUse" xlink:href="#a" />
    <linearGradient id="E" x1="78.646" x2="122.42" y1="743.14" y2="713.55"
      gradientTransform="matrix(1.156 0 0 .86508 51.239 -223.96)" gradientUnits="userSpaceOnUse" xlink:href="#a" />
    <linearGradient id="D" x1="-1308.2" x2="-1335" y1="330.2" y2="272.82"
      gradientTransform="matrix(.70158 0 0 1.9364 1153.997 -263.29)" gradientUnits="userSpaceOnUse" xlink:href="#c" />
    <linearGradient id="C" x1="-1006.6" x2="-953.88" y1="448.68" y2="299.89"
      gradientTransform="matrix(.93941 0 0 1.4462 1153.997 -263.29)" gradientUnits="userSpaceOnUse" xlink:href="#c" />
    <linearGradient id="B" x1="-961.05" x2="-929.04"
      gradientTransform="matrix(-.5802 -.42153 .40645 -.77422 -437.773 513.66)" gradientUnits="userSpaceOnUse"
      xlink:href="#b" />
    <linearGradient id="A" x1="-961.33" x2="-929.51"
      gradientTransform="matrix(-.01958 -.86239 1.1799 -.02525 -417.453 -308.36)" gradientUnits="userSpaceOnUse"
      xlink:href="#b" />
    <linearGradient id="z" x1="-961.12" x2="-929.16"
      gradientTransform="matrix(.42511 -.53051 .57538 .68663 248.027 -409.26)" gradientUnits="userSpaceOnUse"
      xlink:href="#b" />
    <linearGradient id="y" x1="-961.27" x2="-929.41"
      gradientTransform="matrix(.5769 -.25828 .2613 1.0001 518.757 -368.19)" gradientUnits="userSpaceOnUse"
      xlink:href="#b" />
    <linearGradient id="x" x1="82.56" x2="94.621" y1="1126.7" y2="1102.5"
      gradientTransform="matrix(-.74875 -1.4906 -.5357 .26909 973.327 307.68)" gradientUnits="userSpaceOnUse"
      xlink:href="#a" />
    <linearGradient id="j" x1="82.56" x2="94.621" y1="1126.7" y2="1102.5"
      gradientTransform="matrix(.25641 -1.6483 -.59236 -.09215 879.497 720.67)" gradientUnits="userSpaceOnUse"
      xlink:href="#a" />
    <linearGradient id="w" x1="82.56" x2="94.621" y1="1126.7" y2="1102.5"
      gradientTransform="matrix(-.70286 -1.5128 .54367 -.2526 -261.903 882.43)" gradientUnits="userSpaceOnUse"
      xlink:href="#a" />
    <linearGradient id="v" x1="82.56" x2="94.621" y1="1126.7" y2="1102.5"
      gradientTransform="matrix(.69089 -1.5183 .54565 .24829 -466.543 336.12)" gradientUnits="userSpaceOnUse"
      xlink:href="#a" />
    <linearGradient id="u" x1="82.56" x2="94.621" y1="1126.7" y2="1102.5"
      gradientTransform="matrix(1.1701 -1.1889 .42727 .4205 -428.173 87.937)" gradientUnits="userSpaceOnUse"
      xlink:href="#a" />
    <linearGradient id="t" x1="82.56" x2="94.621" y1="1126.7" y2="1102.5"
      gradientTransform="matrix(1.553 .60876 -.21878 .55814 270.517 -266.95)" gradientUnits="userSpaceOnUse"
      xlink:href="#a" />
    <linearGradient id="s" x1="96.398" x2="142.51" y1="789.25" y2="733.95"
      gradientTransform="matrix(1.156 0 0 .86508 50.939 -223.96)" gradientUnits="userSpaceOnUse" xlink:href="#a" />
    <linearGradient id="r" x1="82.56" x2="94.621" y1="1126.7" y2="1102.5"
      gradientTransform="matrix(1.6681 0 0 .59948 53.334 -223.37)" gradientUnits="userSpaceOnUse" xlink:href="#a" />
    <linearGradient id="p" x1="-960.98" x2="-928.93"
      gradientTransform="matrix(-.51746 -.4067 .36243 -.74685 -303.243 470.39)" gradientUnits="userSpaceOnUse"
      xlink:href="#b" />
    <linearGradient id="h" x1="82.56" x2="94.621" y1="1126.7" y2="1102.5"
      gradientTransform="matrix(-1.2948 -1.0517 -.37798 .46531 896.307 18.54)" gradientUnits="userSpaceOnUse"
      xlink:href="#a" />
    <linearGradient id="J" x1="82.56" x2="94.621" y1="1126.7" y2="1102.5"
      gradientTransform="matrix(1.1002 -1.2538 .4506 .39539 -311.02 864.05)" gradientUnits="userSpaceOnUse"
      xlink:href="#a" />
    <linearGradient id="K" x1="78.646" x2="122.42" y1="743.14" y2="713.55"
      gradientTransform="matrix(-.34546 -1.1031 .82555 -.25853 -265.09 1483.1)" gradientUnits="userSpaceOnUse"
      xlink:href="#a" />
    <linearGradient id="d">
      <stop stop-color="#1a1a1a" offset="0" />
      <stop stop-color="#1a1a1a" stop-opacity="0" offset="1" />
    </linearGradient>
    <linearGradient id="e">
      <stop offset="0" />
      <stop stop-color="#060606" offset=".557" />
      <stop stop-color="#292929" offset=".707" />
      <stop stop-color="#2d2d2d" offset="1" />
    </linearGradient>
    <filter id="g" x="-.074" y="-.051" width="1.147" height="1.102">
      <feGaussianBlur stdDeviation="8.845" />
    </filter>
    <filter id="q" x="-.107" y="-.227" width="1.215" height="1.453">
      <feGaussianBlur stdDeviation="7.284" />
    </filter>
    <filter id="I" x="-.151" y="-.409" width="1.302" height="1.819">
      <feGaussianBlur stdDeviation="5.463" />
    </filter>
    <filter id="o" x="-.345" y="-.328" width="1.691" height="1.657">
      <feGaussianBlur stdDeviation=".561" />
    </filter>
    <filter id="n" x="-.345" y="-.328" width="1.691" height="1.657">
      <feGaussianBlur stdDeviation=".561" />
    </filter>
    <filter id="m" x="-.289" y="-.275" width="1.579" height="1.55">
      <feGaussianBlur stdDeviation=".47" />
    </filter>
    <filter id="l" x="-.275" y="-.262" width="1.55" height="1.523">
      <feGaussianBlur stdDeviation=".446" />
    </filter>
    <filter id="k" x="-.268" y="-.255" width="1.537" height="1.511">
      <feGaussianBlur stdDeviation=".436" />
    </filter>
    <filter id="i" x="-.256" y="-.243" width="1.511" height="1.486">
      <feGaussianBlur stdDeviation=".415" />
    </filter>
  </defs>
  <path
    d="m244.387 89.248-4.688 5.125c-9.31 12.174-23.427 23.408-22.688 40.28-.1 14.03 5.43 27.119 9.563 40.282.824-.942 1.646-1.916 2.468-2.906.18.484.346.944.532 1.437 7.16-8.245 10.274-14.325 11.312-19.656 1.736 6.456 3.005 12.73 3.843 18.812.103 2.704.273 5.507.5 8.406-7.796 32.631-26.872 44.457-23.406 79.687-2.887-19.637-4.886-36.686-.843-51.125-2.31-17.904-4.628-33.2-22.531-45.906 5.486 22.236 11.833 55.751-6.938 64.125-2.992 6.15-12.854 20.902-15.25 43.281-1.326 4.253-2.432 8.591-3.25 12.97-.857 5.235-1.09 10.497-.781 15.718-.326 7.796.534 15.606 2.812 23.312.423 1.18.863 2.332 1.313 3.47-4.187-2.022-8.375-4.47-12.562-8.657 8.256 24.398 18.57 43.882 31.938 58.5l-31.625 17.906-.313-.188-5.093 9.844 4.937 3.375-39.062 10.781a12.74 12.74 0 0 0-3.594.688c-8.832 3.067-12.746 15.262-8.718 27.219 4.027 11.957 14.48 19.192 23.312 16.125 1.08-.376 2.072-.9 3-1.532l.093.22 50.125-36.25 3.594 2.468 8.594-5-5.938 9.469.313.094-.813 6.812-27.03 23.094c-1.787.64-3.408 1.596-4.75 2.969-2.952 3.018-4.058 7.305-3.5 11.844v.031c.023.187.033.375.062.563.297 3.55 1.787 7.348 4.375 10.438.342.408.702.794 1.062 1.156.64.776 1.32 1.523 2.063 2.25 8.397 8.21 20.184 9.767 26.344 3.469 1.807-1.848 2.937-4.157 3.406-6.72l29.094-42.874 9.438.937 1.468.531.157-.343 1.343.125-.28-2.531 4.624-10.281.906 50.125a15.892 15.892 0 0 0-.812 5.375c.2 10.242 10.21 18.302 22.344 18 .803-.02 1.596-.098 2.375-.188.603-.057 1.198-.15 1.781-.25l.656-.125a21.76 21.76 0 0 0 5.625-1.937l.094-.032c.473-.245.937-.505 1.375-.78 5.953-3.462 9.846-9.27 9.719-15.782-.054-2.742-.813-5.345-2.125-7.656l-14.406-51.906 8.969 5.844 39.938 53.03c1.133 1.771 2.59 3.302 4.375 4.47 5.77 3.775 13.186 2.745 18.812-1.97 2.385-1.113 4.563-3.21 6.093-6.124 1.722-3.28 2.297-6.973 1.813-10.281.119-3.992-.908-7.806-2.938-10.875l.438-.313-1.594-1.25a14.478 14.478 0 0 0-3.062-2.719 14.193 14.193 0 0 0-1.5-.843l-27.531-21.594 7.718-2.188v-11.28l-.062.03v-.187l-1.156.375-15.47-8.438c1.05-.064 2.09-.15 3.126-.25l62.438 35.781c.766.798 1.609 1.514 2.562 2.125a13.924 13.924 0 0 0 4.313 1.813l1.406.812.187-.53c6.398.757 13.327-2.777 17.344-9.532.427-.718.79-1.445 1.125-2.188.113-.208.238-.407.344-.625 1.907-3.93 2.215-8.47 1.125-12.156-.89-4.105-3.107-7.732-6.594-9.968-.197-.127-.392-.229-.593-.344l.062-.188-.812-.187a13.998 13.998 0 0 0-5.813-1.438l-30.938-7.656 18.844-20.844-7.281-7.969-.688.813-2.093-.125c8.716-14.518 11.69-33.141 6.25-54.406-6.981 12.844-11.544 19.99-23.062 23.844 3.511-13.996 1.009-28.637.5-42.875.15-4.79.851-9.48 2.03-14.031-.43 11.084 3.477 21.676 5.938 32.344.805-.768 1.624-1.563 2.438-2.375.292 1.009.58 2.038.906 3.094 12.152-11.71 13.131-18.362 12.281-25.75a20.7 20.7 0 0 0-.531-6.532c-.011-2.861-1.103-5.524-1.75-8.187 1.17-4.958 4.671-12.053 8.187-23.656a73.959 73.959 0 0 1-2.718 3c1.57-4.516 3.008-9.091 4.156-13.75l-5.125 4.656c-3.242 3.432-6.978 6.809-10.5 10.344 4.58-6.069 9.932-11.565 15.78-16.312.038-.053.06-.104.094-.156l.907-.75c-.161.015-.309.046-.47.062 1.833-3.692-2.79-4.974-6.124-5.062-10.952 1.553-22.036 5.392-31.594 11.375 5.434-18.59 5.5-38.651-8.594-55.781-4.482 14.94-9.547 27.029-16.656 38.219-2.39-6.967-6.435-13.544-10.969-19.625 3.262-14.353 5.03-28.494-.094-43.72 1.444-20.213-31.774-19.608-32.062-81.405-14.628 18.435-23.427 33.94-26.375 55.219-2.488-3.448-4.478-5.827-3.218 1.875.065 1.41.157 2.81.28 4.219-.535-.831-1.07-1.672-1.624-2.5.282-2.196.221-4.289-.031-6.375 0-2.112-.27-4.283-.875-6.47.022-4.585-2.725-8.293-3.594-12.437.57-5.83 3.978-14.363 6.906-28.75-.416.582-.828 1.163-1.25 1.719.84-3.559 1.59-7.155 2.094-10.781zm82.25 61.844-1.438 6.75c-1.871 7.98-1.025 16.775-4.5 24.219-8.141 6.22-11.695 17.786-8.125 27.594.844 6.258 2.542 8.564 5.313 6 .136.418.256.815.406 1.25 16.208-16.613 18.929-26.484 17.469-35.47a24.696 24.696 0 0 0-1.656-8.343c-2.5-7.319-4.684-14.777-7.47-22z"
    fill="url(#f)" fill-rule="evenodd" filter="url(#g)" style="fill:url(#f)" />
  <path transform="matrix(.49317 0 0 .58648 85.938 -327.956)"
    d="M441.12 601.3c0 1.415-1.091 2.563-2.438 2.563-1.346 0-2.437-1.148-2.437-2.563 0-1.415 1.091-2.563 2.438-2.563 1.346 0 2.437 1.148 2.437 2.563z"
    fill="#1a1a1a" filter="url(#h)" stroke="#000" stroke-width=".5" style="filter:url(#i)" />
  <path transform="matrix(.49317 0 0 .58648 101.116 -326.624)"
    d="M441.12 601.3c0 1.415-1.091 2.563-2.438 2.563-1.346 0-2.437-1.148-2.437-2.563 0-1.415 1.091-2.563 2.438-2.563 1.346 0 2.437 1.148 2.437 2.563z"
    fill="#1a1a1a" filter="url(#h)" stroke="#000" stroke-width=".5" style="filter:url(#i)" />
  <path transform="matrix(.44704 0 0 .58648 136.003 -325.27)"
    d="M441.12 601.3c0 1.415-1.091 2.563-2.438 2.563-1.346 0-2.437-1.148-2.437-2.563 0-1.415 1.091-2.563 2.438-2.563 1.346 0 2.437 1.148 2.437 2.563z"
    fill="#1a1a1a" filter="url(#j)" stroke="#000" stroke-width=".525" style="filter:url(#k)" />
  <path transform="matrix(.44704 0 0 .58648 147.408 -323.803)"
    d="M441.12 601.3c0 1.415-1.091 2.563-2.438 2.563-1.346 0-2.437-1.148-2.437-2.563 0-1.415 1.091-2.563 2.438-2.563 1.346 0 2.437 1.148 2.437 2.563z"
    fill="#1a1a1a" filter="url(#j)" stroke="#000" stroke-width=".525" style="filter:url(#k)" />
  <path transform="matrix(.35159 -.28617 .27855 .48397 32.714 -135.235)"
    d="M441.12 601.3c0 1.415-1.091 2.563-2.438 2.563-1.346 0-2.437-1.148-2.437-2.563 0-1.415 1.091-2.563 2.438-2.563 1.346 0 2.437 1.148 2.437 2.563z"
    fill="#1a1a1a" filter="url(#l)" stroke="#000" stroke-width=".538" />
  <path transform="matrix(.29502 -.29357 .31648 .44979 44.851 -109.453)"
    d="M441.12 601.3c0 1.415-1.091 2.563-2.438 2.563-1.346 0-2.437-1.148-2.437-2.563 0-1.415 1.091-2.563 2.438-2.563 1.346 0 2.437 1.148 2.437 2.563z"
    fill="#1a1a1a" filter="url(#m)" stroke="#000" stroke-width=".566" />
  <path transform="matrix(.2465 -.13154 .2019 .53507 143.382 -229.177)"
    d="M441.12 601.3c0 1.415-1.091 2.563-2.438 2.563-1.346 0-2.437-1.148-2.437-2.563 0-1.415 1.091-2.563 2.438-2.563 1.346 0 2.437 1.148 2.437 2.563z"
    fill="#1a1a1a" filter="url(#n)" stroke="#000" stroke-width=".676" />
  <path transform="matrix(.20874 -.20399 .31311 .45311 99.984 -145.322)"
    d="M441.12 601.3c0 1.415-1.091 2.563-2.438 2.563-1.346 0-2.437-1.148-2.437-2.563 0-1.415 1.091-2.563 2.438-2.563 1.346 0 2.437 1.148 2.437 2.563z"
    fill="#1a1a1a" filter="url(#o)" stroke="#000" stroke-width=".676" />
  <path transform="matrix(.49317 0 0 .58648 71.928 -328.645)"
    d="M441.12 601.3c0 1.415-1.091 2.563-2.438 2.563-1.346 0-2.437-1.148-2.437-2.563 0-1.415 1.091-2.563 2.438-2.563 1.346 0 2.437 1.148 2.437 2.563z"
    fill="#1a1a1a" filter="url(#h)" stroke="#000" stroke-width=".5" style="filter:url(#i)" />
  <path transform="matrix(.49317 0 0 .58648 55.887 -329.474)"
    d="M441.12 601.3c0 1.415-1.091 2.563-2.438 2.563-1.346 0-2.437-1.148-2.437-2.563 0-1.415 1.091-2.563 2.438-2.563 1.346 0 2.437 1.148 2.437 2.563z"
    fill="#1a1a1a" filter="url(#h)" stroke="#000" stroke-width=".5" style="filter:url(#i)" />
  <path transform="matrix(.49317 0 0 .58648 42.287 -328.852)"
    d="M441.12 601.3c0 1.415-1.091 2.563-2.438 2.563-1.346 0-2.437-1.148-2.437-2.563 0-1.415 1.091-2.563 2.438-2.563 1.346 0 2.437 1.148 2.437 2.563z"
    fill="#1a1a1a" filter="url(#h)" stroke="#000" stroke-width=".5" style="filter:url(#i)" />
  <path d="m378.647 453.22-77.102-44.181 12.995-10.396 77.102 19.059z" fill="#924b00" fill-rule="evenodd" stroke="#000"
    stroke-linejoin="bevel" stroke-opacity=".344" stroke-width="1.901"
    transform="matrix(1.19688 0 0 1.1326 -58.64 -81.214)" />
  <path
    d="M368.917 425.67c5.31-8.932 15.728-12.263 23.252-7.436 7.524 4.828 9.321 15.995 4.011 24.928-5.31 8.933-15.728 12.264-23.252 7.437-7.524-4.828-9.322-15.995-4.011-24.928z"
    fill="#c15300" stroke="#000" stroke-linejoin="bevel" stroke-opacity=".344" stroke-width="1.901"
    transform="matrix(1.19688 0 0 1.1326 -58.64 -81.214)" />
  <path
    d="M383.387 435.62c.581-.487.889.627.742 1.07-.397 1.2-1.863 1.18-2.677.552-1.455-1.125-1.363-3.458-.294-4.829 1.57-2.011 4.423-1.788 6.097-.034 2.23 2.339 1.948 6.306-.155 8.588-2.647 2.871-7.018 2.422-9.516-.484-3.025-3.519-2.544-9.17.604-12.347 3.71-3.743 9.62-3.062 12.935 1.001 3.827 4.692 3.145 12.04-1.052 16.106-4.77 4.62-12.226 3.706-16.355-1.518-4.632-5.861-3.747-14.912 1.5-19.865 5.826-5.5 14.833-4.35 19.774 2.036"
    fill="none" stroke="#000" stroke-linejoin="bevel" stroke-opacity=".344" stroke-width="1.901"
    transform="matrix(1.19688 0 0 1.1326 -58.64 -81.214)" />
  <path
    d="M334.887 407.03c-7.118 6.162-11.784 4.667-24.024 7.048 17.033 8.63 38.848 22.99 56.698 31.913-3.756-7.602-3.224-17.34.092-25.408-10.66-.661-24.269-3.26-32.766-13.552z"
    fill="url(#h)" fill-rule="evenodd" style="fill:url(#h)" transform="matrix(1.19688 0 0 1.1326 -58.64 -81.214)" />
  <path
    d="M381.967 428.04c3.051-6.288 9.037-8.633 13.362-5.235 4.324 3.4 5.356 11.261 2.305 17.55-3.052 6.287-9.038 8.633-13.362 5.235-4.325-3.399-5.357-11.261-2.305-17.55z"
    fill="url(#p)" style="fill:url(#p)" transform="matrix(1.19688 0 0 1.1326 -58.64 -81.214)" />
  <path
    d="m120.487 418.57 50.246-13.86 39.85 3.465-71.903 51.98-6.931-15.595-11.262-25.99zM175.927 473.15l18.193 17.327 32.92-48.514-9.53-9.53-14.727-1.732L161.2 466.22l14.727 6.93zM271.227 487.01l13.86-5.197-26.855-97.028-16.46 11.262 1.732 96.16 27.722-5.197zM329.267 489.61l-10.396-3.464-50.246-66.707 14.727-8.664 64.108 50.246-15.594 11.262-2.6 17.326z"
    fill="#924b00" fill-rule="evenodd" stroke="#000" stroke-linejoin="bevel" stroke-opacity=".344" stroke-width="1.901"
    transform="matrix(1.19688 0 0 1.1326 -58.64 -81.214)" />
  <path
    d="m209.307 368.79-44.75 25.313-.313-.188-5.094 9.844 33.688 23.094 8.625-5-5.937 9.469.281.094-1.312 11 28.28 1.718 12.907 1.282 1.343.468.157-.312 1.343.125-.28-2.563 12.655-28.188 40.688 26.625 30.344-8.656v-11.28l-.062.03v-.187l-1.157.375-61.156-33.375v-12.75l-16.188 4.031-.687-.375-12.594 3.531-20.781-14.125zm77.219 31.189z"
    fill-rule="evenodd" filter="url(#q)" transform="matrix(1.19688 0 0 1.1326 -58.64 -81.214)" />
  <path
    d="M144.277 434.24c4.027 11.958.128 24.152-8.704 27.219s-19.27-4.148-23.296-16.105c-4.027-11.957-.128-24.151 8.704-27.218s19.269 4.148 23.296 16.105zM189.137 467.29c8.397 8.211 10.213 19.987 4.053 26.285-6.16 6.298-17.974 4.746-26.372-3.465-8.398-8.21-10.213-19.986-4.053-26.284 6.159-6.298 17.974-4.746 26.372 3.465zM264.137 468.81c12.133-.301 22.143 7.766 22.343 18.008.2 10.241-9.485 18.799-21.618 19.1-12.134.303-22.143-7.765-22.343-18.006-.2-10.242 9.484-18.8 21.618-19.101zM319.147 464.77c5.398-9.258 15.988-12.711 23.638-7.708 7.65 5.004 9.476 16.58 4.077 25.84-5.398 9.258-15.988 12.711-23.638 7.708-7.65-5.004-9.476-16.58-4.077-25.84z"
    fill="#c15300" stroke="#000" stroke-linejoin="bevel" stroke-opacity=".344" stroke-width="1.901"
    transform="matrix(1.19688 0 0 1.1326 -58.64 -81.214)" />
  <path d="m163.877 393.77 44.974-25.444 24.257 16.46-22.454 30.97-18.263 10.613-28.514-32.6z" fill="#994200"
    fill-rule="evenodd" stroke="#000" stroke-opacity=".202" stroke-width="1.425"
    transform="matrix(1.19688 0 0 1.1326 -58.64 -81.214)" />
  <path d="m195.067 430.85 29.38-46.93 34.653-8.662v19.925l-22.524 50.246-41.51-14.578z" fill="#994200"
    fill-rule="evenodd" stroke="#000" stroke-opacity=".202" stroke-width="1.425"
    transform="matrix(1.19688 0 0 1.1326 -58.64 -81.214)" />
  <path
    d="m163.807 393.45-5.1 9.828 33.688 23.093 3.753-14.042-32.342-18.878zM236.107 433.72l.438 10.78-42.492-2.559 1.337-11.239 40.717 3.018z"
    fill="#c15300" fill-rule="evenodd" stroke="#000" stroke-opacity=".202" stroke-width="1.425"
    transform="matrix(1.19688 0 0 1.1326 -58.64 -81.214)" />
  <path
    d="M125.859 438.61c.127.937-.88.422-1.162-.05-.765-1.277-.11-2.717.738-3.062 1.516-.617 3.303 1.193 3.909 3.264.889 3.039-.533 5.706-2.638 6.074-2.806.491-5.789-2.71-6.656-6.477-1.091-4.74 1.17-8.747 4.538-9.086 4.077-.411 8.291 4.227 9.402 9.69 1.31 6.438-1.806 11.801-6.437 12.098-5.346.344-10.8-5.745-12.15-12.904-1.533-8.134 2.442-14.86 8.337-15.11 6.613-.28 13.312 7.263 14.897 16.117 1.76 9.83-3.077 17.922-10.237 18.122M175.737 478.35c.619.715-.506.834-1 .594-1.34-.65-1.58-2.214-1.058-2.967.931-1.346 3.417-.809 5.057.593 2.407 2.057 2.677 5.067 1.116 6.528-2.08 1.946-6.327.9-9.115-1.78-3.508-3.37-3.807-7.961-1.174-10.087 3.188-2.576 9.253-1 13.173 2.965 4.619 4.672 4.945 10.866 1.232 13.649-4.286 3.213-12.184 1.102-17.23-4.152-5.735-5.969-6.089-13.774-1.292-17.209 5.382-3.854 15.116-1.206 21.288 5.338 6.852 7.265 7.233 16.684 1.35 20.77M263.187 488.45c.805.24.072 1.1-.4 1.21-1.282.3-2.257-.97-2.277-2.006-.036-1.853 1.996-3.02 3.877-2.833 2.76.274 4.502 2.847 4.153 5.223-.466 3.168-4.005 5.046-7.354 4.457-4.215-.741-6.792-4.74-6.03-8.44.925-4.483 6.02-7.09 10.832-6.08 5.67 1.19 9.093 6.635 7.905 11.658-1.371 5.798-8.036 9.138-14.308 7.702-7.126-1.63-11.399-8.532-9.782-14.874 1.814-7.115 10.054-11.19 17.785-9.326 8.584 2.07 13.707 10.43 11.658 18.091M333.487 474.11c.576-.255.489.774.252 1.11-.64.91-1.735.494-2.167-.26-.772-1.35-.037-3.305 1.157-4.176 1.752-1.28 3.831-.314 4.587 1.63 1.007 2.59-.336 5.878-2.567 7.242-2.806 1.716-5.96.145-7.006-2.999-1.268-3.808.706-8.471 3.976-10.309 3.853-2.166 8.096.02 9.426 4.368 1.535 5.021-1.074 11.07-5.385 13.376-4.9 2.622-10.236-.182-11.846-5.737-1.806-6.232 1.441-13.67 6.794-16.443 5.943-3.08 12.378.345 14.266 7.106"
    fill="none" stroke="#000" stroke-linejoin="bevel" stroke-opacity=".344" stroke-width="1.901"
    transform="matrix(1.19688 0 0 1.1326 -58.64 -81.214)" />
  <path d="m236.747 432.66 1.336 12.577-43.39-4.355 1.337-11.24 40.717 3.019z" fill="url(#r)" fill-rule="evenodd"
    style="fill:url(#r)" transform="matrix(1.19688 0 0 1.1326 -58.64 -81.214)" />
  <path d="m196.897 429.79 18.902-31.661 7.709.917 21.256 12.74-9.053 21.806-38.814-3.801z" fill="url(#s)"
    fill-rule="evenodd" style="fill:url(#s)" transform="matrix(1.19688 0 0 1.1326 -58.64 -81.214)" />
  <path d="m193.787 413.46-1.848 11.598-32.222-21.985 5.346-9.976 28.724 20.364z" fill="url(#t)" fill-rule="evenodd"
    style="fill:url(#t)" transform="matrix(1.19688 0 0 1.1326 -58.64 -81.214)" />
  <path
    d="m168.537 412.1 19.518 12.245c-14.445 9.913-27.602 18.86-43.334 29.74 2.888-7.972 3.203-17.23-.988-24.88 10.52-1.84 17.501-5.932 24.804-17.104z"
    fill="url(#u)" fill-rule="evenodd" style="fill:url(#u)" transform="matrix(1.19688 0 0 1.1326 -58.64 -81.214)" />
  <path
    d="M200.047 443.16c9.12.636 15.023.305 24.466 1.262-9.521 13.947-15.268 23.007-27.275 38.946-.024-8.48-4.837-16.961-11.398-22.708 9.25-5.34 11.184-4.5 14.208-17.5z"
    fill="url(#v)" fill-rule="evenodd" style="fill:url(#v)" transform="matrix(1.19688 0 0 1.1326 -58.64 -81.214)" />
  <path
    d="M252.607 417.41c7.713 5.637 12.209 7.412 16.704 9.83 4.215 17.005 7.979 28.605 12.647 47.153-6.452-5.502-15.012-9.045-23.646-7.804 1.967-10.497 2.193-38.42-5.707-49.178z"
    fill="url(#w)" fill-rule="evenodd" style="fill:url(#w)" transform="matrix(1.19688 0 0 1.1326 -58.64 -81.214)" />
  <path
    d="M252.127 416.07c-4.26 5.901-6.59 10.836-9.564 15.449.659 17.507.68 28.578 1.332 47.694 5.32-8.36 11.92-12.848 20.559-14.047-4.798-9.542-16.939-36.571-12.328-49.095z"
    fill="url(#j)" fill-rule="evenodd" style="fill:url(#j)" transform="matrix(1.19688 0 0 1.1326 -58.64 -81.214)" />
  <path
    d="M291.437 440.66c-3.73-2.077-.452 1.265-9.85-5.073 10.05 13.57 21.5 29.294 34.112 44.76-2.983-10.005 4.181-17.135 10.517-23.13-9.448-4.98-17.09-18.998-34.779-16.557z"
    fill="url(#x)" fill-rule="evenodd" style="fill:url(#x)" transform="matrix(1.19688 0 0 1.1326 -58.64 -81.214)" />
  <path
    d="M129.187 434.96c2.199 8.418.07 17.003-4.753 19.162-4.823 2.159-10.522-2.92-12.721-11.338-2.2-8.418-.07-17.002 4.753-19.161 4.822-2.16 10.522 2.92 12.72 11.338z"
    fill="url(#y)" style="fill:url(#y)" transform="matrix(1.19688 0 0 1.1326 -58.64 -81.214)" />
  <path
    d="M176.587 470.64c4.843 5.781 5.89 14.07 2.338 18.505-3.553 4.434-10.368 3.341-15.212-2.44-4.844-5.78-5.891-14.07-2.338-18.503 3.553-4.434 10.368-3.342 15.212 2.439z"
    fill="url(#z)" style="fill:url(#z)" transform="matrix(1.19688 0 0 1.1326 -58.64 -81.214)" />
  <path
    d="M264.797 479.7c9.93-.212 18.122 5.467 18.286 12.678.164 7.21-7.763 13.234-17.693 13.447-9.93.213-18.122-5.467-18.286-12.677-.164-7.21 7.762-13.234 17.693-13.447z"
    fill="url(#A)" style="fill:url(#A)" transform="matrix(1.19688 0 0 1.1326 -58.64 -81.214)" />
  <path
    d="M330.587 469.76c3.422-6.518 10.135-8.949 14.983-5.426 4.848 3.523 6.006 11.672 2.584 18.19-3.422 6.518-10.135 8.95-14.983 5.427-4.848-3.523-6.006-11.672-2.584-18.19z"
    fill="url(#B)" style="fill:url(#B)" transform="matrix(1.19688 0 0 1.1326 -58.64 -81.214)" />
  <path
    d="M163.807 317.21c19.348 57.178 49.958 87.499 104.82 90.965 60.354 19.348 116.38-20.214 100.49-82.3-7.22 13.284-11.84 20.503-24.257 24.257 4.909-34.364-26.567-40.14-11.262-77.102 10.685-22.813 17.038-50.824-1.733-73.637-7.797 25.99-17.326 43.316-36.385 62.375 2.021-31.765 18.77-57.466 8.663-87.498 1.444-20.214-31.765-19.637-32.054-81.434-21.08 26.567-30.032 47.07-26.856 87.498-7.797 32.63-26.856 44.47-23.39 79.7-2.889-19.636-4.91-36.673-.867-51.112-2.31-17.904-4.62-33.21-22.524-45.915 5.487 22.236 11.84 55.733-6.93 64.108-5.199 10.685-31.188 47.359-2.6 104.82-8.374-4.91-16.749-6.353-25.123-14.727z"
    fill="url(#C)" fill-rule="evenodd" stroke="#ff0" stroke-opacity=".504" stroke-width="2.156" style="fill:url(#C)"
    transform="matrix(1.19688 0 0 1.1326 -58.64 -81.214)" />
  <path
    d="M262.567 399.51c-45.915-48.513-53.712-82.3-23.391-114.35 34.075-60.641 25.7-98.76.866-135.15 23.39 80.569-27.722 132.55-44.182 155.94-9.818-30.32-1.444-43.315 12.128-80.567-26.567 28.877-42.738 63.819-32.92 97.028 17.904 49.958 60.065 60.93 87.498 77.102z"
    fill="url(#D)" fill-rule="evenodd" stroke="#ff0" stroke-opacity=".504" stroke-width="2.156" style="fill:url(#D)"
    transform="matrix(1.19688 0 0 1.1326 -58.64 -81.214)" />
  <path
    d="M318.287 216.21c-6.155-17.9-1.133-21.734 4.259-29.554 5.561-2.166 3.857-9.719 6.892-26.538 4.595 18.773 16.93 27.309-11.151 56.093z"
    fill="gold" fill-rule="evenodd" stroke="#ff0" stroke-opacity=".504" stroke-width="2.156"
    transform="matrix(1.19688 0 0 1.1326 -58.64 -81.214)" />
  <path d="m196.667 412.59 13.065-5.938" fill="none" stroke="#000" stroke-opacity=".179" stroke-width="1.358"
    transform="matrix(1.19688 0 0 1.1326 -58.64 -81.214)" />
  <path d="m165.917 393.87 26.985-14.896 22.079 17.682-5.39 9.148-13.841 5.939-29.833-17.872z" fill="url(#E)"
    fill-rule="evenodd" style="fill:url(#E)" transform="matrix(1.19688 0 0 1.1326 -58.64 -81.214)" />
  <path
    d="M325.207 157.18c-1.872 7.981-1.026 16.776-4.5 24.22-8.142 6.22-11.691 17.776-8.122 27.584 1.109 8.22 3.68 9.638 8.237 2.132 9.732-10.014 18.837-24.363 13.296-38.712-2.5-7.32-4.69-14.75-7.474-21.972l-1.438 6.75z"
    fill="url(#F)" fill-rule="evenodd" style="fill:url(#F)" transform="matrix(1.19688 0 0 1.1326 -58.64 -81.214)" />
  <path d="m227.047 393.45 64.108 43.317 30.32-14.727-76.235-41.583-21.658 6.064 3.465 6.93z" fill="#994200"
    fill-rule="evenodd" stroke="#000" stroke-opacity=".202" stroke-width="1.425"
    transform="matrix(1.19688 0 0 1.1326 -58.64 -81.214)" />
  <path d="m235.867 433.18 10.294-20.982" fill="none" stroke="#000" stroke-opacity=".179" stroke-width="1.358"
    transform="matrix(1.19688 0 0 1.1326 -58.64 -81.214)" />
  <path d="m224.027 391.91 64.108 43.317 30.32-14.727-76.235-41.583-21.658 6.064 3.465 6.93z" fill="url(#G)"
    fill-rule="evenodd" style="fill:url(#G)" transform="matrix(1.19688 0 0 1.1326 -58.64 -81.214)" />
  <path d="M223.577 386.52v10.397l67.573 44.182 30.32-8.663v-11.262l-27.721 8.663z" fill="#c15300" fill-rule="evenodd"
    stroke="#000" stroke-opacity=".202" stroke-width="1.425" transform="matrix(1.19688 0 0 1.1326 -58.64 -81.214)" />
  <path d="M223.517 386.37v10.397l67.573 44.182 30.32-8.663v-11.262l-27.721 8.663-70.172-43.316z" fill="url(#H)"
    fill-rule="evenodd" style="fill:url(#H)" transform="matrix(1.19688 0 0 1.1326 -58.64 -81.214)" />
  <path d="m309.867 375.96-20.656 22.5 66.562 8.626.875.906 19.406-21.469-7.282-7.969-.687.813-58.22-3.406z"
    fill-rule="evenodd" filter="url(#I)" transform="matrix(1.19688 0 0 1.1326 -58.64 -81.214)" />
  <path d="m307.14 1159-58.984-3.465-20.666 22.524 67.89 8.76 11.76-27.82z" fill="#994200" fill-rule="evenodd"
    stroke="#000" stroke-opacity=".202" stroke-width="1.425" transform="matrix(1.19688 0 0 1.1326 16.47 -965.337)" />
  <path d="m288.13 1180.4 6.81 7.178 19.407-21.486-7.28-7.97-18.937 22.277z" fill="#c15300" fill-rule="evenodd"
    stroke="#000" stroke-opacity=".202" stroke-width="1.425" transform="matrix(1.19688 0 0 1.1326 16.47 -965.337)" />
  <path d="m288.92 1180.4-46.322-6.335" fill="none" stroke="#000" stroke-opacity=".179" stroke-width="1.358"
    transform="matrix(1.19688 0 0 1.1326 16.47 -965.337)" />
  <path d="m307.55 1159.2 5.843 6.99-18.42 20.761-6.368-7.22 18.945-20.53z" fill="url(#J)" fill-rule="evenodd"
    style="fill:url(#J)" transform="matrix(1.19688 0 0 1.1326 16.47 -965.337)" />
  <path d="m287.85 1179.8-39.046-5.732 23.978-16.257 15.798.694 16.391.657-17.12 20.638z" fill="url(#K)"
    fill-rule="evenodd" style="fill:url(#K)" transform="matrix(1.19688 0 0 1.1326 16.47 -965.337)" />
  <path
    d="M357.857 325.88c15.883-15.304 12.706-21.946 11.262-32.92-4.62-5.197 1.155-12.127 6.93-31.187-14.727 17.038-32.054 19.348-18.193 64.108z"
    fill="gold" fill-rule="evenodd" stroke="#ff0" stroke-opacity=".504" stroke-width="2.156"
    transform="matrix(1.19688 0 0 1.1326 -58.64 -81.214)" />
  <path
    d="M283.357 399.51c17.904-10.106 22.813-41.871 25.123-77.101 4.331-34.075 12.995-68.15 70.172-73.637-23.391 18.77-42.45 41.872-33.786 84.899-2.31 62.664-48.803 60.354-61.51 65.84z"
    fill="url(#L)" fill-rule="evenodd" stroke="#ff0" stroke-opacity=".504" stroke-width="2.156" style="fill:url(#L)"
    transform="matrix(1.19688 0 0 1.1326 -58.64 -81.214)" />
  <path
    d="M372.057 243.79c-24.381 3.458-49.512 18.106-56.668 42.984-11.484 31.097-5.138 66.49-20.8 96.36-5.949 2.586-4.494 13.675 2.851 11.506 21.516-3.901 41.938-18.85 47.39-40.786 5.257-15.234 2.276-31.35 1.716-46.997.716-22.693 13.855-43.158 31.105-57.16 3.02-4.348-2.016-5.811-5.593-5.906z"
    fill="url(#M)" fill-rule="evenodd" style="fill:url(#M)" transform="matrix(1.19688 0 0 1.1326 -58.64 -81.214)" />
  <path
    d="M372.357 255.68c-9.825 10.4-24.078 20.134-23.735 36.125-.727 11.456 3.353 22.38 5.89 33.376 8.53-8.139 18.223-18.74 15.1-31.575-.023-5.656-4.285-10.602-.939-16.113 3.214-8.726 6.576-17.408 8.808-26.47l-5.125 4.657z"
    fill="url(#N)" fill-rule="evenodd" style="fill:url(#N)" transform="matrix(1.19688 0 0 1.1326 -58.64 -81.214)" />
  <path
    d="M252.167 376.12c-2.31-27.721-5.487-47.647 29.455-72.77 59.198-41.294 30.032-65.263-6.931-108.29 10.973 42.738-6.642 76.814-21.658 99.627-9.818 14.15-43.893 43.027-.866 81.434z"
    fill="url(#O)" fill-rule="evenodd" stroke="#ff0" stroke-opacity=".504" stroke-width="2.156" style="fill:url(#O)"
    transform="matrix(1.19688 0 0 1.1326 -58.64 -81.214)" />
  <path
    d="M229.587 172.77c15.988-18.41 11.882-25.987 9.27-38.663-5.555-5.844.132-14.122 4.682-36.476-14.559 20.374-33.348 23.763-13.952 75.14z"
    fill="gold" fill-rule="evenodd" stroke="#ff0" stroke-opacity=".504" stroke-width="2.156"
    transform="matrix(1.19688 0 0 1.1326 -58.64 -81.214)" />
  <path
    d="M239.707 93.709c-9.31 12.174-23.427 23.408-22.688 40.28-.1 14.03 5.429 27.119 9.562 40.282 8.44-9.635 17.42-21.87 13.664-35.446.026-5.372-3.737-9.542-3.845-14.615 2.057-11.975 6.312-23.543 7.994-35.626z"
    fill="url(#P)" fill-rule="evenodd" style="fill:url(#P)" transform="matrix(1.19688 0 0 1.1326 -58.64 -81.214)" />
  <path
    d="M273.797 187.9c6.405 29.136-.192 59.829-14.936 85.426-9.154 17.597-27.201 31.074-28.921 52.01-2.759 18.245 10.387 33.452 22.569 45.242 4.961 6.239.708-8.51 1.384-11.963-1.98-17.95 1.098-38.088 15.582-50.4 16.125-15.687 39.124-26.562 46.848-49.11 5.224-19.912-8.697-37.761-20.84-51.901-7.322-8.886-15.042-17.406-22.72-25.99l1.032 6.687z"
    fill="url(#Q)" fill-rule="evenodd" style="fill:url(#Q)" transform="matrix(1.19688 0 0 1.1326 -58.64 -81.214)" />
  <path
    d="M244.707 162.05c.633 13.779 4.55 27.422 2.757 41.329-1.582 32.467-15.848 62.999-35.542 88.414-3.654 5.191-7.545 10.209-11.31 15.32-5.033-16.773-2.76-34.858 4.02-50.775 3.57-8.505 6.076-17.332 7.387-26.475-18.82 17.169-32.104 40.574-36.78 65.625-3.793 23.169 4.358 46.99 19.73 64.403 19.326 22.8 47.116 35.614 74.05 47.066-15.262-21.468-36.508-40.84-41.02-67.962-3.095-15.75 3.107-31.557 13.45-43.332 11.84-16.266 19.213-35.615 23.594-55.146 5.689-25.436 1.129-52.94-12.773-74.997-3.43-2.508-9.56-15.684-7.562-3.469z"
    fill="url(#R)" fill-rule="evenodd" style="fill:url(#R)" transform="matrix(1.19688 0 0 1.1326 -58.64 -81.214)" />
  <path
    d="M265.807 105.278c-14.993 19.685-21.351 44.824-19.44 69.337 1.428 11.987-4.945 23.146-9.482 33.854-8.343 15.962-15.89 33.394-13.608 51.836-.658 10.627-5.38-.088-4.882-5.433-2.261-15.035-3.228-30.627-.144-45.52-1.554-14.495-5.226-30.206-17.194-39.73 3.554 17.203 8.172 36.593-.406 53.03-3.078 5.507-9.963 7.013-11.401 13.625-14.443 25.3-15.531 56.843-4.566 83.628 2.282 6.1 5.258 11.924 7.842 17.903-8.047-4.595-16.878-7.713-24.656-12.75 10.774 31.546 31.26 62.581 63.6 74.858 12.717 5.414 26.585 6.42 40.021 8.557 29.45 9.194 65.997 3.153 85.427-22.475 11.416-14.827 14.587-34.836 10.701-52.908-5.142 10.4-14.054 18.83-25.562 21.5 2.648-13.353-1.383-26.715-8.282-38.137-7.447-12.187-9.198-27.592-3.255-40.76 9.017-19.764 15.833-43.682 5.331-64.252-3.25-9.496-5.537-3.667-7.184 3.059-6.866 21.12-20.73 39.089-36.422 54.496 1.087-21.548 8.605-41.935 11.8-63.117 1.824-10.791-.271-21.62-2.53-32.07-1.538-11.741-13.776-17.765-18.94-27.82-9.2-13.374-12.261-29.995-12.798-45.962l-3.97 5.25z"
    fill="url(#S)" fill-rule="evenodd" style="fill:url(#S)" transform="matrix(1.19688 0 0 1.1326 -58.64 -81.214)" />
</svg>